<svg xmlns="http://www.w3.org/2000/svg" fill="none" viewBox="0 0 128 128">
  <path fill="#FBBC05" fill-rule="evenodd" d="M27.585 64c0-4.157.69-8.143 1.923-11.881L7.938 35.648C3.734 44.183 1.366 53.8 1.366 64c0 10.191 2.366 19.802 6.563 28.332l21.558-16.503A37.86 37.86 0 0 1 27.585 64Z" clip-rule="evenodd"/>
  <path fill="#EA4335" fill-rule="evenodd" d="M65.457 26.182c9.032 0 17.189 3.2 23.598 8.436L107.698 16C96.338 6.109 81.772 0 65.458 0 40.13 0 18.361 14.484 7.937 35.648l21.57 16.471a37.77 37.77 0 0 1 35.95-25.937Z" clip-rule="evenodd"/>
  <path fill="#34A853" fill-rule="evenodd" d="M65.457 101.818A37.77 37.77 0 0 1 29.51 75.881L7.938 92.349C18.36 113.516 40.128 128 65.456 128c15.633 0 30.558-5.551 41.758-15.951L86.741 96.221c-5.776 3.639-13.052 5.597-21.284 5.597Z" clip-rule="evenodd"/>
  <path fill="#4285F4" fill-rule="evenodd" d="M126.634 64c0-3.782-.583-7.855-1.457-11.636h-59.72V77.09h34.376c-1.719 8.43-6.397 14.912-13.092 19.13l20.474 15.828c11.766-10.92 19.419-27.188 19.419-48.05Z" clip-rule="evenodd"/>
</svg>