<svg xmlns="http://www.w3.org/2000/svg" fill="none" viewBox="0 0 80 16">
  <path fill="currentColor" d="M6.006 0C7.27 0 8.369.225 9.302.676c.949.436 1.671 1.067 2.168 1.893.512.811.768 1.773.768 2.885 0 1.111-.256 2.08-.768 2.907-.497.81-1.22 1.442-2.168 1.893-.933.435-2.032.653-3.296.653h-3.07v4.868H0V0h6.006Zm0 8.383c.993 0 1.753-.248 2.28-.744.542-.495.813-1.224.813-2.185 0-.962-.27-1.69-.813-2.186-.527-.496-1.287-.744-2.28-.744h-3.07v5.86h3.07ZM18.054 4.44c1.415 0 2.604.345 3.567 1.036.978.676 1.468 1.803 1.468 3.38v6.919h-2.936v-1.736a5.57 5.57 0 0 1-1.964 1.465 5.835 5.835 0 0 1-2.325.496c-.979 0-1.8-.27-2.462-.811-.647-.556-.97-1.352-.97-2.389 0-.977.248-1.713.745-2.209a3.457 3.457 0 0 1 1.76-.991c.678-.15 1.551-.27 2.62-.36.933-.076 1.595-.166 1.987-.271.406-.12.61-.368.61-.744 0-.616-.196-1.044-.588-1.284-.376-.24-.835-.36-1.377-.36-.557 0-1.084.134-1.58.405-.497.255-.813.774-.949 1.555l-2.777-.609c.18-1.201.768-2.08 1.761-2.636 1.009-.571 2.145-.857 3.41-.857Zm-2.687 8.36c0 .466.165.841.496 1.127.347.27.776.405 1.287.405.482 0 .949-.142 1.4-.428.467-.285.85-.728 1.152-1.33.3-.6.451-1.344.451-2.23v-.18a1.983 1.983 0 0 1-.745.292c-.286.06-.662.12-1.129.18-.632.076-1.144.173-1.535.294-.376.105-.7.308-.97.608-.272.285-.407.706-.407 1.262ZM31.116 6.896c-.903 0-1.633.158-2.19.473-.557.3-.978.834-1.264 1.6-.271.766-.406 1.825-.406 3.178v3.628H24.32V4.507h2.936V6.58c.36-.78.85-1.352 1.467-1.712.632-.361 1.415-.541 2.348-.541h.045v2.569ZM36.884 4.44c1.415 0 2.604.345 3.567 1.036.978.676 1.468 1.803 1.468 3.38v6.919h-2.936v-1.736a5.568 5.568 0 0 1-1.964 1.465 5.834 5.834 0 0 1-2.325.496c-.979 0-1.8-.27-2.462-.811-.647-.556-.97-1.352-.97-2.389 0-.977.248-1.713.745-2.209a3.456 3.456 0 0 1 1.76-.991c.678-.15 1.551-.27 2.62-.36.933-.076 1.596-.166 1.987-.271.406-.12.61-.368.61-.744 0-.616-.196-1.044-.588-1.284-.376-.24-.835-.36-1.377-.36-.557 0-1.084.134-1.58.405-.497.255-.813.774-.949 1.555l-2.777-.609c.18-1.201.768-2.08 1.761-2.636 1.009-.571 2.145-.857 3.41-.857Zm-2.687 8.36c0 .466.165.841.496 1.127.347.27.776.405 1.288.405.481 0 .948-.142 1.4-.428.466-.285.85-.728 1.15-1.33.302-.6.452-1.344.452-2.23v-.18a1.981 1.981 0 0 1-.745.292c-.286.06-.662.12-1.129.18-.632.076-1.144.173-1.535.294-.376.105-.7.308-.97.608-.272.285-.407.706-.407 1.262ZM56.178 4.327c1.415 0 2.348.465 2.8 1.397.466.931.7 2.163.7 3.696v6.355h-2.935V9.42c0-1.112-.09-1.923-.271-2.434-.166-.526-.542-.789-1.13-.789-.616 0-1.18.368-1.693 1.104-.511.737-.767 2.231-.767 4.485v3.989h-2.935V9.42c0-1.112-.09-1.923-.271-2.434-.166-.526-.542-.789-1.13-.789-.617 0-1.181.368-1.693 1.104-.511.737-.767 2.231-.767 4.485v3.989H43.15V4.507h2.936v1.938c.722-1.412 1.82-2.118 3.296-2.118.963 0 1.701.233 2.213.698.511.466.865 1.097 1.06 1.893.362-.871.836-1.517 1.423-1.938.602-.435 1.302-.653 2.1-.653ZM66.297 4.44c1.415 0 2.604.345 3.568 1.036.978.676 1.467 1.803 1.467 3.38v6.919h-2.935v-1.736a5.568 5.568 0 0 1-1.964 1.465 5.834 5.834 0 0 1-2.326.496c-.978 0-1.798-.27-2.46-.811-.648-.556-.972-1.352-.972-2.389 0-.977.249-1.713.745-2.209a3.456 3.456 0 0 1 1.761-.991c.678-.15 1.55-.27 2.62-.36.933-.076 1.595-.166 1.986-.271.407-.12.61-.368.61-.744 0-.616-.196-1.044-.587-1.284-.376-.24-.835-.36-1.377-.36-.557 0-1.084.134-1.58.405-.497.255-.813.774-.949 1.555l-2.777-.609c.18-1.201.768-2.08 1.761-2.636 1.009-.571 2.145-.857 3.41-.857Zm-2.686 8.36c0 .466.165.841.496 1.127.347.27.775.405 1.287.405.482 0 .948-.142 1.4-.428.467-.285.85-.728 1.152-1.33.3-.6.451-1.344.451-2.23v-.18a1.981 1.981 0 0 1-.745.292c-.286.06-.662.12-1.129.18-.632.076-1.144.173-1.535.294-.376.105-.7.308-.971.608-.271.285-.406.706-.406 1.262ZM75.59 0v2.952h-3.026V0h3.026Zm-.046 4.507H72.61v11.268h2.936V4.507ZM80 0h-2.935v15.775H80V0Z"/>
</svg>