<svg width="16" height="16" viewBox="0 0 16 16" fill="currentColor" xmlns="http://www.w3.org/2000/svg">
  <g clip-path="url(#a)">
    <path d="M7.324.646C7.363.55 7.43.5 7.529.5c.098 0 .167.049.206.146l.412 1.114 1.118.41c.098.039.147.107.147.205 0 .098-.05.166-.147.205l-1.118.41-.412 1.114c-.039.097-.108.146-.206.146-.098 0-.166-.049-.205-.146L6.912 2.99l-1.147-.41c-.079-.039-.118-.107-.118-.205 0-.098.04-.166.118-.205l1.147-.41.412-1.114Zm5.235.264a1.43 1.43 0 0 1 1-.41c.392 0 .725.137 1 .41l1.03 1.026c.274.273.411.605.411.996 0 .37-.137.703-.412.996L4.382 15.09a1.43 1.43 0 0 1-1 .41c-.392 0-.725-.137-1-.41l-1.03-1.025a1.354 1.354 0 0 1-.41-.997c0-.37.136-.703.41-.996L12.56.91Zm1 1.319L10.47 5.305l.706.703 3.088-3.076-.706-.703ZM.206 3.928l1.676-.615.618-1.67c.059-.137.167-.206.324-.206.156 0 .264.069.323.206l.618 1.67 1.676.615c.137.058.206.166.206.322s-.069.264-.206.322l-1.676.615-.618 1.67c-.059.137-.167.205-.323.205-.157 0-.265-.068-.324-.205l-.618-1.67-1.676-.615C.069 4.514 0 4.406 0 4.25s.069-.264.206-.322Zm10.382 7.5 1.647-.616.618-1.64c.059-.156.167-.235.324-.235.156 0 .264.079.323.235l.618 1.64 1.676.616c.137.058.206.166.206.322s-.069.264-.206.322l-1.676.616-.618 1.67c-.059.136-.167.204-.323.204-.157 0-.265-.068-.324-.205l-.618-1.67-1.647-.615c-.157-.058-.235-.166-.235-.322s.078-.264.235-.322Z"/>
  </g>
</svg>